<?xml version="1.0" encoding="utf-8"?>
<!-- Generator: Adobe Illustrator 19.1.0, SVG Export Plug-In . SVG Version: 6.00 Build 0)  -->
<svg version="1.1" id="Layer_1" xmlns="http://www.w3.org/2000/svg" xmlns:xlink="http://www.w3.org/1999/xlink" x="0px" y="0px"
	 viewBox="0 0 222.8 231.2" enable-background="new 0 0 222.8 231.2" xml:space="preserve">
<path fill="#4E3413" d="M133.8,16.7c0,0,6.8,9.9,11.1,10.3c4.4,0.4,6.8,0,12.3,1.6c5.6,1.6,0.4-17.5-7.6-20.3c-8-2.8-11.5,4-11.5,4
	s4.4-0.8,4.8,1.2C143.3,15.5,133.8,16.7,133.8,16.7z"/>
<path fill="#4E3413" d="M50.6,21.4c0,0-15.1,0.4-21.9,17.5c0,0,6.8,16.5,21.9,5.2C64.9,33.3,50.6,21.4,50.6,21.4z"/>
<path fill="#4E3413" d="M11.7,52.9c0,0-8.8,9.1-2.4,16.7C9.3,69.6,13.7,69.6,11.7,52.9z"/>
<path fill="#4E3413" d="M98.3,53.6c0,0,13.9,6,15.5,3.2c1.6-2.8-9.1-31.4-25.1-12.3c0,0,7.6-5.2,8-2.4c0.4,2.8-8.8,2-10.3,4.4
	C84.8,48.8,95.1,52.4,98.3,53.6z"/>
<path fill="#4E3413" d="M150.1,56.1c0,0-3.2,6-7.6,4.8c-4.4-1.2,2.8,18.3,9.9,22.3C159.6,87.1,178.3,56.1,150.1,56.1z"/>
<path fill="#4E3413" d="M199.3,24.1c0,0-7.2,13.5-13.9,17.1s10.3,2.8,13.1,4c2.8,1.2,1.2,6,3.6,6s5.6-13.9,3.2-19.9s4.4,2.4,4.4,2.4
	S210,24.1,199.3,24.1z"/>
<path fill="#4E3413" d="M192.6,98.2c-0.6,3.6,3.2,5.6,2.4,8c-0.8,2.4-3.2,4.4-2.8,5.6c0.4,1.2,6.4,3.6,9.5,0.8
	c3.2-2.8,2,2.4,1.6,4.4c-0.4,2,5.2-7.2,0-15.1S193,95.9,192.6,98.2z"/>
<path fill="#4E3413" d="M90.4,89.9c0.3,2.8,6.8,0.8,8,4c1.2,3.2-2,20.3-13.9,3.6S89.2,79.9,90.4,89.9z"/>
<path fill="#4E3413" d="M72.1,103c0,0-2.8,4.4-5.2,4.8c-2.4,0.4,9.9,2,11.5,4.8c0,0-3.6-6.8-0.8-7.6C77.7,105,72.5,105.4,72.1,103z"
	/>
<path fill="#4E3413" d="M18.4,132.4c0,0,11.5-3.2,16.3-2c0,0,1.2-12.7-9.5-12.7S21.2,127.3,18.4,132.4z"/>
<path fill="#4E3413" d="M142.8,119.2c-2.7,0.9,2.4,6.8,0.8,9.1c-1.6,2.4-4,0.8-6,3.2c-2,2.4,14.3,26.6,24.3,10.3
	S157.9,114.4,142.8,119.2z"/>
<path fill="#4E3413" d="M95.6,151.5c2.6,1.9,13.5,3.2,17.5-2.4s-1.6-14.7-6-14.3c-4.4,0.4-5.6-5.6-9.9-3.6
	C92.8,133.2,86.1,144.4,95.6,151.5z"/>
<path fill="#4E3413" d="M181.9,176.5c1.2-1.6,4.4-0.8,8.4-2s10.3-6,13.9-4.8c3.6,1.2-1.6,10.3-1.6,14.3c0,4-1.2-2-3.2-2
	c-2,0-3.6,6-8.8,6C185.4,188.1,181.9,176.5,181.9,176.5z"/>
<path fill="#4E3413" d="M12.8,199.8c0,0,17.5-3.2,18.3-8c0,0,0.8,6.4,4.4,6.4s-2.8,13.9-8.4,13.9C27.1,212.2,13.2,202.6,12.8,199.8z
	"/>
<path fill="#4E3413" d="M88.8,180.6l-12.3,1.6l0.4,2.4c0,0,9.9-1.6,12.3,0L88.8,180.6z"/>
<path fill="#4E3413" d="M68.9,196.9c0,0,6.8,1.6,8.4-3.2c0,0,3.6-1.2,6-0.4c2.4,0.8,9.5-0.4,6.8,5.2c-2.8,5.6-4.4,8.4-8,8.4
	c-3.6,0-17.1-2.4-13.1-5.2C68.9,201.7,70.1,200.1,68.9,196.9z"/>
<path fill="#4E3413" d="M146.1,190.9c0,0,4.8,3.2,8.8,0c4-3.2,8.8,10.7,5.6,14.7c-3.2,4,5.2,8-3.2,11.1c-8.4,3.2-8.8-2.8-8.8-2.8
	s-13.9-3.2-8.8-11.9C144.9,193.3,146.5,195.3,146.1,190.9z"/>
</svg>
