<?xml version="1.0" encoding="utf-8"?>
<!-- Generator: Adobe Illustrator 19.1.0, SVG Export Plug-In . SVG Version: 6.00 Build 0)  -->
<svg version="1.1" id="Layer_1" xmlns="http://www.w3.org/2000/svg" xmlns:xlink="http://www.w3.org/1999/xlink" x="0px" y="0px"
	 viewBox="0 0 144 36" enable-background="new 0 0 144 36" xml:space="preserve">
<g>
	<path fill="#FFFFFF" d="M41.4,13.5h5.3v17.2h-5.3V13.5z M44,5c1.7,0,3.1,1.4,3.1,3.1c0,1.7-1.4,3.1-3.1,3.1c-1.7,0-3.1-1.4-3.1-3.1
		C40.9,6.3,42.3,5,44,5"/>
	<path fill="#FFFFFF" d="M50.1,13.5h5.1v2.3h0.1c0.7-1.4,2.5-2.8,5.1-2.8c5.4,0,6.4,3.6,6.4,8.2v9.4h-5.3v-8.4c0-2,0-4.6-2.8-4.6
		c-2.8,0-3.2,2.2-3.2,4.4v8.5h-5.3V13.5z"/>
</g>
<g>
	<g>
		<path fill="#FFFFFF" d="M85.9,27.1c8.5,0,13.1-7,13.1-13.1c0-0.2,0-0.4,0-0.6c0.9-0.7,1.7-1.5,2.3-2.4c-0.8,0.4-1.7,0.6-2.7,0.7
			c1-0.6,1.7-1.5,2-2.6c-0.9,0.5-1.9,0.9-2.9,1.1c-0.8-0.9-2-1.5-3.4-1.5c-2.5,0-4.6,2.1-4.6,4.6c0,0.4,0,0.7,0.1,1.1
			c-3.8-0.2-7.2-2-9.5-4.8c-0.4,0.7-0.6,1.5-0.6,2.3c0,1.6,0.8,3,2.1,3.8c-0.8,0-1.5-0.2-2.1-0.6c0,0,0,0,0,0.1
			c0,2.2,1.6,4.1,3.7,4.5C83,20,82.6,20,82.2,20c-0.3,0-0.6,0-0.9-0.1c0.6,1.8,2.3,3.2,4.3,3.2c-1.6,1.2-3.6,2-5.7,2
			c-0.4,0-0.7,0-1.1-0.1C80.8,26.4,83.2,27.1,85.9,27.1"/>
		<rect x="72" fill="none" width="36" height="36"/>
	</g>
</g>
<g>
	<path fill-rule="evenodd" clip-rule="evenodd" fill="#FFFFFF" d="M18,6C11.2,6,5.7,11.5,5.7,18.3c0,5.4,3.5,10,8.4,11.7
		c0.6,0.1,0.8-0.3,0.8-0.6c0-0.3,0-1.3,0-2.3c-3.4,0.7-4.1-1.4-4.1-1.4c-0.6-1.4-1.4-1.8-1.4-1.8c-1.1-0.8,0.1-0.7,0.1-0.7
		c1.2,0.1,1.9,1.3,1.9,1.3c1.1,1.9,2.9,1.3,3.6,1c0.1-0.8,0.4-1.3,0.8-1.6c-2.7-0.3-5.6-1.4-5.6-6.1c0-1.3,0.5-2.4,1.3-3.3
		c-0.1-0.3-0.5-1.6,0.1-3.3c0,0,1-0.3,3.4,1.3c1-0.3,2-0.4,3.1-0.4c1,0,2.1,0.1,3.1,0.4c2.3-1.6,3.4-1.3,3.4-1.3
		c0.7,1.7,0.2,2.9,0.1,3.3c0.8,0.9,1.3,2,1.3,3.3c0,4.7-2.9,5.8-5.6,6.1c0.4,0.4,0.8,1.1,0.8,2.3c0,1.6,0,3,0,3.4
		c0,0.3,0.2,0.7,0.8,0.6c4.9-1.6,8.4-6.2,8.4-11.7C30.3,11.5,24.8,6,18,6z"/>
	<path fill="#FFFFFF" d="M10.4,23.7c0,0.1-0.1,0.1-0.2,0c-0.1,0-0.1-0.1-0.1-0.2c0-0.1,0.1-0.1,0.2,0C10.3,23.5,10.4,23.6,10.4,23.7
		L10.4,23.7z M10.2,23.5"/>
	<path fill="#FFFFFF" d="M10.9,24.2c-0.1,0.1-0.2,0-0.3-0.1c-0.1-0.1-0.1-0.2,0-0.3c0.1-0.1,0.2,0,0.3,0.1
		C10.9,24,10.9,24.2,10.9,24.2L10.9,24.2z M10.7,24.1"/>
	<path fill="#FFFFFF" d="M11.3,24.9c-0.1,0.1-0.2,0-0.3-0.1c-0.1-0.1-0.1-0.2,0-0.3c0.1-0.1,0.2,0,0.3,0.1
		C11.4,24.7,11.4,24.9,11.3,24.9L11.3,24.9z M11.3,24.9"/>
	<path fill="#FFFFFF" d="M12,25.6c-0.1,0.1-0.2,0.1-0.3,0c-0.1-0.1-0.1-0.2-0.1-0.3c0.1-0.1,0.2-0.1,0.3,0
		C12.1,25.4,12.1,25.5,12,25.6L12,25.6z M12,25.6"/>
	<path fill="#FFFFFF" d="M12.9,26c0,0.1-0.2,0.1-0.3,0.1c-0.1,0-0.2-0.2-0.2-0.3c0-0.1,0.2-0.1,0.3-0.1C12.9,25.8,13,25.9,12.9,26
		L12.9,26z M12.9,26"/>
	<path fill="#FFFFFF" d="M13.9,26.1c0,0.1-0.1,0.2-0.3,0.2c-0.1,0-0.3-0.1-0.3-0.2c0-0.1,0.1-0.2,0.3-0.2
		C13.8,25.9,13.9,26,13.9,26.1L13.9,26.1z M13.9,26.1"/>
	<path fill="#FFFFFF" d="M14.9,25.9c0,0.1-0.1,0.2-0.2,0.2c-0.1,0-0.3,0-0.3-0.1c0-0.1,0.1-0.2,0.2-0.2
		C14.7,25.8,14.9,25.8,14.9,25.9L14.9,25.9z M14.9,25.9"/>
</g>
<g>
	<path fill="#FFFFFF" d="M117.4,28.6h17.3v-2.5h-17.3 M134.7,15h-4.9V7.6h-7.4V15h-4.9l8.7,8.7L134.7,15z"/>
</g>
</svg>
