<?xml version="1.0" encoding="utf-8"?>
<!-- Generator: Adobe Illustrator 22.0.1, SVG Export Plug-In . SVG Version: 6.00 Build 0)  -->
<svg version="1.1" id="Layer_1" xmlns="http://www.w3.org/2000/svg" xmlns:xlink="http://www.w3.org/1999/xlink" x="0px" y="0px"
	 viewBox="0 0 183.4 36.1" style="enable-background:new 0 0 183.4 36.1;" xml:space="preserve">
<style type="text/css">
	.st0{fill:#007BB6;}
	.st1{fill:#FFFFFF;}
	.st2{fill:#429CD6;}
	.st3{fill:none;}
	.st4{fill:#B39BCA;}
	.st5{fill:#DA3075;}
</style>
<rect x="36.8" class="st0" width="36" height="36"/>
<rect width="36" height="36"/>
<path class="st1" d="M42.1,13.5h5.3v17.2h-5.3V13.5z M44.8,5c1.7,0,3.1,1.4,3.1,3.1s-1.4,3.1-3.1,3.1s-3.1-1.4-3.1-3.1
	C41.7,6.3,43.1,5,44.8,5"/>
<path class="st1" d="M50.8,13.5h5.1v2.3H56c0.7-1.4,2.5-2.8,5.1-2.8c5.4,0,6.4,3.6,6.4,8.2v9.4h-5.3v-8.4c0-2,0-4.6-2.8-4.6
	s-3.2,2.2-3.2,4.4v8.5h-5.3L50.8,13.5L50.8,13.5z"/>
<rect x="73.8" class="st2" width="36" height="36"/>
<path class="st1" d="M87.6,27.1c8.5,0,13.1-7,13.1-13.1c0-0.2,0-0.4,0-0.6c0.9-0.7,1.7-1.5,2.3-2.4c-0.8,0.4-1.7,0.6-2.7,0.7
	c1-0.6,1.7-1.5,2-2.6c-0.9,0.5-1.9,0.9-2.9,1.1c-0.8-0.9-2-1.5-3.4-1.5c-2.5,0-4.6,2.1-4.6,4.6c0,0.4,0,0.7,0.1,1.1
	c-3.8-0.2-7.2-2-9.5-4.8c-0.4,0.7-0.6,1.5-0.6,2.3c0,1.6,0.8,3,2.1,3.8c-0.8,0-1.5-0.2-2.1-0.6c0,0,0,0,0,0.1c0,2.2,1.6,4.1,3.7,4.5
	c-0.4,0.1-0.8,0.2-1.2,0.2c-0.3,0-0.6,0-0.9-0.1c0.6,1.8,2.3,3.2,4.3,3.2c-1.6,1.2-3.6,2-5.7,2c-0.4,0-0.7,0-1.1-0.1
	C82.6,26.4,85,27.1,87.6,27.1"/>
<rect x="73.8" class="st3" width="36" height="36"/>
<rect x="110.7" class="st4" width="36" height="36"/>
<rect x="147.4" y="0.1" class="st5" width="36" height="36"/>
<g>
	<path class="st1" d="M18.2,6C11.4,6,5.9,11.5,5.9,18.3c0,5.4,3.5,10,8.4,11.7c0.6,0.1,0.8-0.3,0.8-0.6c0-0.3,0-1.3,0-2.3
		c-3.4,0.7-4.1-1.4-4.1-1.4c-0.6-1.4-1.4-1.8-1.4-1.8c-1.1-0.8,0.1-0.7,0.1-0.7c1.2,0.1,1.9,1.3,1.9,1.3c1.1,1.9,2.9,1.3,3.6,1
		c0.1-0.8,0.4-1.3,0.8-1.6c-2.7-0.3-5.6-1.4-5.6-6.1c0-1.3,0.5-2.4,1.3-3.3c-0.1-0.3-0.5-1.6,0.1-3.3c0,0,1-0.3,3.4,1.3
		c1-0.3,2-0.4,3.1-0.4c1,0,2.1,0.1,3.1,0.4c2.3-1.6,3.4-1.3,3.4-1.3c0.7,1.7,0.2,2.9,0.1,3.3c0.8,0.9,1.3,2,1.3,3.3
		c0,4.7-2.9,5.8-5.6,6.1c0.4,0.4,0.8,1.1,0.8,2.3c0,1.6,0,3,0,3.4c0,0.3,0.2,0.7,0.8,0.6c4.9-1.6,8.4-6.2,8.4-11.7
		C30.5,11.5,25,6,18.2,6z"/>
	<path class="st1" d="M10.5,23.7c0,0.1-0.1,0.1-0.2,0c-0.1,0-0.1-0.1-0.1-0.2s0.1-0.1,0.2,0C10.5,23.5,10.6,23.6,10.5,23.7
		L10.5,23.7z"/>
	<path class="st1" d="M11,24.2c-0.1,0.1-0.2,0-0.3-0.1s-0.1-0.2,0-0.3c0.1-0.1,0.2,0,0.3,0.1C11.1,24,11.1,24.2,11,24.2L11,24.2z"/>
	<path class="st1" d="M11.5,24.9c-0.1,0.1-0.2,0-0.3-0.1c-0.1-0.1-0.1-0.2,0-0.3c0.1-0.1,0.2,0,0.3,0.1
		C11.6,24.7,11.6,24.9,11.5,24.9L11.5,24.9z"/>
	<path class="st1" d="M12.2,25.6c-0.1,0.1-0.2,0.1-0.3,0c-0.1-0.1-0.1-0.2-0.1-0.3c0.1-0.1,0.2-0.1,0.3,0
		C12.2,25.4,12.3,25.5,12.2,25.6L12.2,25.6z"/>
	<path class="st1" d="M13.1,26c0,0.1-0.2,0.1-0.3,0.1c-0.1,0-0.2-0.2-0.2-0.3c0-0.1,0.2-0.1,0.3-0.1C13,25.8,13.1,25.9,13.1,26
		L13.1,26z"/>
	<path class="st1" d="M14.1,26.1c0,0.1-0.1,0.2-0.3,0.2c-0.1,0-0.3-0.1-0.3-0.2s0.1-0.2,0.3-0.2S14.1,26,14.1,26.1L14.1,26.1z"/>
	<path class="st1" d="M15,25.9c0,0.1-0.1,0.2-0.2,0.2s-0.3,0-0.3-0.1s0.1-0.2,0.2-0.2C14.9,25.8,15,25.8,15,25.9L15,25.9z"/>
</g>
<path class="st1" d="M120.1,28.6h17.3v-2.5h-17.3 M137.4,15h-4.9V7.6h-7.4V15h-4.9l8.7,8.7L137.4,15z"/>
<g>
	<path class="st1" d="M165.1,9.7c2.7,0,3.1,0,4.1,0.1c1,0,1.5,0.2,1.9,0.4c0.5,0.2,0.8,0.4,1.2,0.8c0.4,0.4,0.6,0.7,0.8,1.2
		c0.1,0.4,0.3,0.9,0.4,1.9c0,1.1,0.1,1.4,0.1,4.1s0,3.1-0.1,4.1c0,1-0.2,1.5-0.4,1.9c-0.2,0.5-0.4,0.8-0.8,1.2
		c-0.4,0.4-0.7,0.6-1.2,0.8c-0.4,0.1-0.9,0.3-1.9,0.4c-1.1,0-1.4,0.1-4.1,0.1s-3.1,0-4.1-0.1c-1,0-1.5-0.2-1.9-0.4
		c-0.5-0.2-0.8-0.4-1.2-0.8s-0.6-0.7-0.8-1.2c-0.1-0.4-0.3-0.9-0.4-1.9c0-1.1-0.1-1.4-0.1-4.1s0-3.1,0.1-4.1c0-1,0.2-1.5,0.4-1.9
		c0.2-0.5,0.4-0.8,0.8-1.2s0.7-0.6,1.2-0.8c0.4-0.1,0.9-0.3,1.9-0.4C162.1,9.7,162.4,9.7,165.1,9.7 M165.1,7.9c-2.8,0-3.1,0-4.2,0.1
		c-1.1,0-1.8,0.2-2.5,0.5c-0.7,0.3-1.2,0.6-1.8,1.2c-0.6,0.6-0.9,1.1-1.2,1.8c-0.3,0.7-0.4,1.4-0.5,2.5c0,1.1-0.1,1.4-0.1,4.2
		s0,3.1,0.1,4.2c0,1.1,0.2,1.8,0.5,2.5c0.3,0.7,0.6,1.2,1.2,1.8c0.6,0.6,1.1,0.9,1.8,1.2c0.7,0.3,1.4,0.4,2.5,0.5
		c1.1,0,1.4,0.1,4.2,0.1c2.8,0,3.1,0,4.2-0.1c1.1,0,1.8-0.2,2.5-0.5c0.7-0.3,1.2-0.6,1.8-1.2s0.9-1.1,1.2-1.8
		c0.3-0.7,0.4-1.4,0.5-2.5c0-1.1,0.1-1.4,0.1-4.2s0-3.1-0.1-4.2c0-1.1-0.2-1.8-0.5-2.5c-0.3-0.7-0.6-1.2-1.2-1.8
		c-0.6-0.6-1.1-0.9-1.8-1.2c-0.7-0.3-1.4-0.4-2.5-0.5C168.3,7.9,167.9,7.9,165.1,7.9L165.1,7.9z"/>
	<path class="st1" d="M165.1,12.9c-2.9,0-5.3,2.4-5.3,5.3s2.4,5.3,5.3,5.3c2.9,0,5.3-2.4,5.3-5.3S168.1,12.9,165.1,12.9z
		 M165.1,21.5c-1.9,0-3.4-1.5-3.4-3.4s1.5-3.4,3.4-3.4s3.4,1.5,3.4,3.4C168.6,20,167,21.5,165.1,21.5z"/>
	<circle class="st1" cx="170.6" cy="12.7" r="1.2"/>
</g>
</svg>
