<svg xmlns="http://www.w3.org/2000/svg" viewBox="0 0 183.4 36.12"><defs><style>.cls-1{fill:#007bb6;}.cls-2,.cls-7{fill:#fff;}.cls-3{fill:#429cd6;}.cls-4{fill:none;}.cls-5{fill:#b39bca;}.cls-6{fill:#da3075;}.cls-7{fill-rule:evenodd;}</style></defs><title>icons</title><g id="Layer_2" data-name="Layer 2"><g id="Layer_1-2" data-name="Layer 1"><rect class="cls-1" x="36.82" width="36" height="36"/><rect width="36" height="36"/><path class="cls-2" d="M42.15,13.5h5.34V30.68H42.15ZM44.82,5a3.1,3.1,0,1,1-3.1,3.1A3.1,3.1,0,0,1,44.82,5"/><path class="cls-2" d="M50.84,13.5H56v2.35H56a5.61,5.61,0,0,1,5.05-2.77c5.41,0,6.41,3.56,6.41,8.18v9.42H62.15V22.32c0-2,0-4.56-2.77-4.56s-3.2,2.17-3.2,4.41v8.5H50.84Z"/><rect class="cls-3" x="73.82" width="36" height="36"/><path class="cls-2" d="M87.64,27.14A13,13,0,0,0,100.78,14c0-.2,0-.4,0-.6a9.39,9.39,0,0,0,2.3-2.39,9.21,9.21,0,0,1-2.65.73,4.63,4.63,0,0,0,2-2.55,9.25,9.25,0,0,1-2.93,1.12,4.62,4.62,0,0,0-7.87,4.21A13.11,13.11,0,0,1,82.13,9.7a4.62,4.62,0,0,0,1.43,6.16,4.58,4.58,0,0,1-2.09-.58s0,0,0,.06a4.62,4.62,0,0,0,3.7,4.53,4.61,4.61,0,0,1-2.08.08,4.62,4.62,0,0,0,4.31,3.21,9.26,9.26,0,0,1-5.73,2,9.4,9.4,0,0,1-1.1-.06,13.07,13.07,0,0,0,7.08,2.07"/><rect class="cls-4" x="73.82" width="36" height="36"/><rect class="cls-5" x="110.74" width="36" height="36"/><rect class="cls-6" x="147.4" y="0.12" width="36" height="36"/><path class="cls-7" d="M18.19,6A12.29,12.29,0,0,0,14.3,30c.61.11.84-.27.84-.59s0-1.26,0-2.29c-3.42.74-4.14-1.45-4.14-1.45a3.25,3.25,0,0,0-1.36-1.8c-1.11-.76.08-.75.08-.75a2.58,2.58,0,0,1,1.88,1.27,2.62,2.62,0,0,0,3.58,1,2.62,2.62,0,0,1,.78-1.64c-2.73-.31-5.6-1.36-5.6-6.07a4.76,4.76,0,0,1,1.27-3.3,4.42,4.42,0,0,1,.12-3.25s1-.33,3.38,1.26a11.65,11.65,0,0,1,6.15,0c2.35-1.59,3.38-1.26,3.38-1.26a4.41,4.41,0,0,1,.12,3.25A4.75,4.75,0,0,1,26,17.66c0,4.72-2.87,5.76-5.61,6.06A2.94,2.94,0,0,1,21.25,26c0,1.64,0,3,0,3.37s.22.71.84.59A12.29,12.29,0,0,0,18.19,6Z"/><path class="cls-2" d="M10.55,23.66c0,.06-.12.08-.21,0s-.14-.12-.11-.18.12-.08.21,0,.14.12.11.19Zm-.15-.11"/><path class="cls-2" d="M11.05,24.21c-.06.05-.17,0-.25-.06a.19.19,0,0,1,0-.26c.06-.05.17,0,.25.06s.1.2,0,.26Zm-.12-.13"/><path class="cls-2" d="M11.54,24.92c-.08.05-.2,0-.27-.11s-.08-.24,0-.29.2,0,.27.1.08.24,0,.3Zm0,0"/><path class="cls-2" d="M12.2,25.6c-.07.07-.21.05-.32,0a.24.24,0,0,1-.07-.31c.07-.07.21-.05.32,0s.14.24.07.31Zm0,0"/><path class="cls-2" d="M13.12,26c0,.1-.17.14-.31.1s-.23-.15-.2-.25.17-.14.31-.1.23.15.2.25Zm0,0"/><path class="cls-2" d="M14.12,26.08c0,.1-.11.19-.26.19s-.27-.08-.27-.18.12-.19.26-.19.27.08.27.18Zm0,0"/><path class="cls-2" d="M15.06,25.92c0,.1-.08.2-.23.23s-.27,0-.29-.13.09-.2.23-.23.28,0,.29.13Zm0,0"/><path class="cls-2" d="M120.08,28.64h17.32V26.16H120.08M137.39,15h-4.95V7.61H125V15h-4.95l8.66,8.66Z"/><path class="cls-2" d="M165.15,9.73c2.74,0,3.06,0,4.14.06a5.67,5.67,0,0,1,1.9.35,3.39,3.39,0,0,1,1.94,1.94,5.67,5.67,0,0,1,.35,1.9c0,1.08.06,1.4.06,4.14s0,3.06-.06,4.14a5.67,5.67,0,0,1-.35,1.9,3.39,3.39,0,0,1-1.94,1.94,5.67,5.67,0,0,1-1.9.35c-1.08,0-1.4.06-4.14.06s-3.06,0-4.14-.06a5.67,5.67,0,0,1-1.9-.35,3.39,3.39,0,0,1-1.94-1.94,5.67,5.67,0,0,1-.35-1.9c0-1.08-.06-1.4-.06-4.14s0-3.06.06-4.14a5.67,5.67,0,0,1,.35-1.9,3.39,3.39,0,0,1,1.94-1.94,5.67,5.67,0,0,1,1.9-.35c1.08,0,1.4-.06,4.14-.06m0-1.85c-2.78,0-3.13,0-4.22.06a7.52,7.52,0,0,0-2.49.48,5.24,5.24,0,0,0-3,3A7.52,7.52,0,0,0,155,13.9c0,1.09-.06,1.44-.06,4.22s0,3.13.06,4.22a7.52,7.52,0,0,0,.48,2.49,5.24,5.24,0,0,0,3,3,7.52,7.52,0,0,0,2.49.48c1.09,0,1.44.06,4.22.06s3.13,0,4.22-.06a7.52,7.52,0,0,0,2.49-.48,5.24,5.24,0,0,0,3-3,7.52,7.52,0,0,0,.48-2.49c0-1.09.06-1.44.06-4.22s0-3.13-.06-4.22a7.52,7.52,0,0,0-.48-2.49,5.24,5.24,0,0,0-3-3,7.52,7.52,0,0,0-2.49-.48c-1.09,0-1.44-.06-4.22-.06Z"/><path class="cls-2" d="M165.15,12.86a5.26,5.26,0,1,0,5.26,5.26A5.26,5.26,0,0,0,165.15,12.86Zm0,8.67a3.41,3.41,0,1,1,3.41-3.41A3.41,3.41,0,0,1,165.15,21.54Z"/><circle class="cls-2" cx="170.62" cy="12.66" r="1.23"/></g></g></svg>