<svg version="1.1" xmlns="http://www.w3.org/2000/svg" xmlns:xlink="http://www.w3.org/1999/xlink" x="0px" y="0px"
	 viewBox="0 0 873.2 459.4" enable-background="new 0 0 873.2 459.4" xml:space="preserve">
<g id="graphic-plum">
	<path fill="#D8AA59" d="M659.3,38.8c2.7,3.8,22-1.3,28,0c6,1.3,26.7-4,36-1.3c9.3,2.7,10.7,4.7,12.7,4.7s14,4.7,18.7,10.7
		c0,0,11.3,5.3,14,5.3c2.7,0,21.3,6.7,25.3,8.7s48.7,50,58,80c0,0,12.7,19.3,15.3,31.3s2,40,2.7,43.3c0.7,3.3,2.7,14,2.7,18
		s-2,10-2,13.3s8,51.3-4,74c0,0-7.3,24-16.7,34.7c0,0-16.7,31.3-48,50c-8.1,4.8-28.7,46.7-99.3,40.7c0,0-63.3,26.7-138-35.3
		c0,0-21.3-7.3-36.7-26c-15.3-18.7-23.3-30-25.3-36c0,0-28-20.7-39.3-42.7c-11.3-22-37.3-111.3,8-154c0,0,6.7-30,23.3-36.7
		c0,0-4.7-21.3,16.7-44c21.3-22.7,43.3-35.3,62-40S650.6,26.8,659.3,38.8z"/>
	<g>
		<defs>
			<path id="SVGID_1_" d="M659.3,38.8c2.7,3.8,22-1.3,28,0c6,1.3,26.7-4,36-1.3c9.3,2.7,10.7,4.7,12.7,4.7s14,4.7,18.7,10.7
				c0,0,11.3,5.3,14,5.3c2.7,0,21.3,6.7,25.3,8.7s48.7,50,58,80c0,0,12.7,19.3,15.3,31.3s2,40,2.7,43.3c0.7,3.3,2.7,14,2.7,18
				s-2,10-2,13.3s8,51.3-4,74c0,0-7.3,24-16.7,34.7c0,0-16.7,31.3-48,50c-8.1,4.8-28.7,46.7-99.3,40.7c0,0-63.3,26.7-138-35.3
				c0,0-21.3-7.3-36.7-26c-15.3-18.7-23.3-30-25.3-36c0,0-28-20.7-39.3-42.7c-11.3-22-37.3-111.3,8-154c0,0,6.7-30,23.3-36.7
				c0,0-4.7-21.3,16.7-44c21.3-22.7,43.3-35.3,62-40S650.6,26.8,659.3,38.8z"/>
		</defs>
		<clipPath id="SVGID_2_">
			<use xlink:href="#SVGID_1_"  overflow="visible"/>
		</clipPath>
		<g clip-path="url(#SVGID_2_)">
			<path fill="#CC9D58" d="M773.9,42.1l122,80c0,0,47,152,46,157s-66,174-66,174l-248,37c0,0-147-103-60-72s154-30,176-40.7
				c22-10.7,14-42.3,8-63.3s-56,1-81-27s25-72,30-88s59-23,74-36s-34-69-33-86s12.7-24.3,12.7-24.3L773.9,42.1z"/>
			<path fill="#D3A559" d="M741.9,77.1c0,0-96-26-134,24s37,23,59,22s-56,60-86,93s-26,105,9,121s56,79,95,76s119-92,119-92l6-159
				L741.9,77.1z"/>
		</g>
	</g>
	<g>
		<path fill="#4F3209" d="M699.3,60.8c0,0,11.3,16.7,18.7,17.3c7.3,0.7,11.3,0,20.7,2.7s0.7-29.3-12.7-34
			c-13.3-4.7-19.3,6.7-19.3,6.7s7.3-1.3,8,2S699.3,60.8,699.3,60.8z"/>
		<path fill="#4F3209" d="M576.6,116.8c0,0-25.3,0.7-36.7,29.3c0,0,11.3,27.7,36.7,8.7C600.6,136.8,576.6,116.8,576.6,116.8z"/>
		<path fill="#4F3209" d="M494.6,121.5c0,0-14.7,15.3-4,28C490.6,149.5,497.9,149.5,494.6,121.5z"/>
		<path fill="#4F3209" d="M659.9,59.5c0,0-12,5.3-19.3,4c-7.3-1.3-16.7,3.3-19.3,10c-2.7,6.7,18.7,3.3,21.3-4.7c2-6,14.7-8.7,25.3-2
			L659.9,59.5z"/>
		<path fill="#4F3209" d="M641.9,170.8c0,0,23.3,10,26,5.3c2.7-4.7-15.3-52.7-42-20.7c0,0,12.7-8.7,13.3-4
			c0.7,4.7-14.7,3.3-17.3,7.3S636.6,168.8,641.9,170.8z"/>
		<path fill="#4F3209" d="M726.6,126.8c0,0-5.3,10-12.7,8c-7.3-2,4.7,30.7,16.7,37.3C742.6,178.8,773.9,126.8,726.6,126.8z"/>
		<path fill="#4F3209" d="M798.6,108.8c0,0-12,22.7-23.3,28.7s17.3,4.7,22,6.7s2,10,6,10s9.3-23.3,5.3-33.3s7.3,4,7.3,4
			S816.6,108.8,798.6,108.8z"/>
		<path fill="#4F3209" d="M797.9,197.5c-1,6.1,5.3,9.3,4,13.3c-1.3,4-5.3,7.3-4.7,9.3s10.7,6,16,1.3c5.3-4.7,3.3,4,2.7,7.3
			c-0.7,3.3,8.7-12,0-25.3C807.3,190.1,798.6,193.5,797.9,197.5z"/>
		<path fill="#4F3209" d="M626.6,183.5c0.6,4.8,11.3,1.3,13.3,6.7c2,5.3-3.3,34-23.3,6S624.6,166.8,626.6,183.5z"/>
		<path fill="#4F3209" d="M595.9,205.5c0,0-4.7,7.3-8.7,8c-4,0.7,16.7,3.3,19.3,8c0,0-6-11.3-1.3-12.7
			C605.3,208.8,596.6,209.5,595.9,205.5z"/>
		<path fill="#4F3209" d="M505.9,254.8c0,0,19.3-5.3,27.3-3.3c0,0,2-21.3-16-21.3C499.3,230.1,510.6,246.1,505.9,254.8z"/>
		<path fill="#4F3209" d="M703.9,253.5c-4.6,1.4,4,11.3,1.3,15.3s-6.7,1.3-10,5.3s24,44.7,40.7,17.3
			C752.6,264.1,729.3,245.5,703.9,253.5z"/>
		<path fill="#4F3209" d="M635.3,286.8c4.3,3.2,22.7,5.3,29.3-4c6.7-9.3-2.7-24.7-10-24c-7.3,0.7-9.3-9.3-16.7-6
			S619.3,274.8,635.3,286.8z"/>
		<path fill="#4F3209" d="M781.9,286.8c2-2.7,7.3-1.3,14-3.3c6.7-2,17.3-10,23.3-8s-2.7,17.3-2.7,24c0,6.7-2-3.3-5.3-3.3
			s-6,10-14.7,10S781.9,286.8,781.9,286.8z"/>
		<path fill="#4F3209" d="M527.9,390.8c0,0,29.3-5.3,30.7-13.3c0,0,1.3,10.7,7.3,10.7s-4.7,23.3-14,23.3
			C551.9,411.5,528.6,395.5,527.9,390.8z"/>
		<path fill="#4F3209" d="M623.9,335.5l-20.7,2.7l0.7,4c0,0,16.7-2.7,20.7,0L623.9,335.5z"/>
		<path fill="#4F3209" d="M590.6,362.8c0,0,11.3,2.7,14-5.3c0,0,6-2,10-0.7c4,1.3,16-0.7,11.3,8.7c-4.7,9.3-7.3,14-13.3,14
			s-28.7-4-22-8.7C590.6,370.8,592.6,368.1,590.6,362.8z"/>
		<path fill="#4F3209" d="M719.9,352.8c0,0,8,5.3,14.7,0c6.7-5.3,14.7,18,9.3,24.7c-5.3,6.7,8.7,13.3-5.3,18.7s-14.7-4.7-14.7-4.7
			s-23.3-5.3-14.7-20C717.9,356.8,720.6,360.1,719.9,352.8z"/>
	</g>
</g>
<g id="graphic-nom">
	<g>
		<defs>
			<path id="SVGID_3_" d="M230.8,450c0,0,218,34.4,188-226.3C406.6,118,304.6,53.5,179.3,64.7c-65.1,5.8-189.8,58-178.6,214.2
				S161.6,481.8,230.8,450z"/>
		</defs>
		<clipPath id="SVGID_4_">
			<use xlink:href="#SVGID_3_"  overflow="visible"/>
		</clipPath>
		<g clip-path="url(#SVGID_4_)">
			<path fill="#510042" d="M230.8,450c0,0,218,34.4,188-226.3C406.6,118,304.6,53.5,179.3,64.7c-65.1,5.8-189.8,58-178.6,214.2
				S161.6,481.8,230.8,450z"/>
			<path fill="#965690" d="M290.6,125.5c0,0-9.4,15.9-4.7,36.5c4.7,20.6,26.2,50.5,42.1,50.5c15.9,0,36.5-29,17.8-49.6
				S311.2,143.3,290.6,125.5z"/>
			<path fill="#470035" d="M214.9,145.1c0,0-4.7-26.2,0.9-39.3c0,0-13.1-7.5-36.5,9.4C179.3,115.2,203.6,132,214.9,145.1z"/>
			<path fill="#4C003C" d="M241,362.1c0,0-1.9-163.7-26.2-217c0,0-39.3-53.3-99.1-50.5c0,0-93.5,17.8-99.1,116.9
				S151.3,456.5,241,362.1z"/>
			<path fill="#56004A" d="M134.4,95.6c0,0-76.7,154.3,99.1,136.5c0,0-4.7-61.7-22.4-87.9s3.7,0.9,3.7,0.9S170,96.5,134.4,95.6z"/>
			<path fill="#4C003C" d="M233.6,232.1c0,0,173.9,20.6,111.3-128.1l118.8,11.2l19.6,113.2l-30.9,70.1l-25.2,45.8l-155.2,45.8
				L241,362.1C241,362.1,238.2,261.1,233.6,232.1z"/>
			<path fill="#4C003C" d="M225.2,67.5c0,0,28.1,15.9,16.8,31.8s-27.1,51.4,6.5,57c33.7,5.6,27.1-31.8,38.3-39.3
				c11.2-7.5,71.1,0,72,34.6s15.9-88.8,15.9-88.8l-99.1-15L225.2,67.5z"/>
			<path fill="#470035" d="M233.6,65.6c0,0-173.9,11.2-209.5,122.5s140.3,233.8,217,173.9c0,0,119.7,61.7,180.5-108.5l47.7,123.4
				L338.3,491.1L77.4,508l-159-140.3l76.7-196.4L79.3,54.4l179.6,0.9L233.6,65.6z"/>
		</g>
	</g>
	<path fill="#916A3F" d="M203.6,122.1c0,0,4.7-1.9,4.7-8.4c0,0-20.6-47.7-31.8-87c0,0,15-19.6,8.4-24.3c-6.5-4.7-22.4-3.7-22.4,14
		s23.4,74.8,25.2,99.1C187.7,115.6,199.8,125.8,203.6,122.1z"/>
</g>
</svg>